<svg width="21" height="17" viewBox="0 0 21 17" fill="none" xmlns="http://www.w3.org/2000/svg">
<path d="M10.5 16C7.84784 16 5.3043 14.9464 3.42893 13.0711C1.55357 11.1957 0.5 8.65216 0.5 6C1.81322 6 3.11358 6.25866 4.32683 6.7612C5.54009 7.26375 6.64248 8.00035 7.57107 8.92893C8.49965 9.85752 9.23625 10.9599 9.7388 12.1732C10.2413 13.3864 10.5 14.6868 10.5 16ZM10.5 16C13.1522 16 15.6957 14.9464 17.5711 13.0711C19.4464 11.1957 20.5 8.65216 20.5 6C17.8478 6 15.3043 7.05357 13.4289 8.92893C11.5536 10.8043 10.5 13.3478 10.5 16ZM13.49 8.5C13.5595 7.10848 13.3284 5.71832 12.8124 4.42412C12.2965 3.12992 11.5078 1.96205 10.5 1C9.49222 1.96205 8.70364 3.12992 8.18769 4.42412C7.67173 5.71832 7.44063 7.10848 7.51012 8.5" stroke="black" stroke-linecap="round" stroke-linejoin="round"/>
</svg>
